# xmcd
#
# Track frame offsets:
#	150
#	11168
#	23317
#	37987
#	52745
#	67102
#	79275
#	93928
#	107450
#	121490
#
# Disc length: 1825 seconds
#
# Revision: 1
# Processed by: cddbd v1.5.2PL0 Copyright (c) Steve Scherf et al.
# Submitted via: audiograbber 1.83.01
#
DISCID=6f071f0a
DTITLE=Mel McDaniel - I'm Countryfied
DYEAR=1981
DGENRE=Country
TTITLE0=Louisiana Saturday Night
TTITLE1=If I Keep on Going Crazy
TTITLE2=Right in the Palm of Your Hand
TTITLE3=Who's Been Sleeping in My Bed
TTITLE4=Cold Hard Facts of Life
TTITLE5=Countryfied
TTITLE6=Ten Years Three Kids Two Loves Too Late
TTITLE7=Goodbye Marie
TTITLE8=My Ship's Comin' in
TTITLE9=Hello Daddy Good Morning Darling
EXTD=
EXTT0=
EXTT1=
EXTT2=
EXTT3=
EXTT4=
EXTT5=
EXTT6=
EXTT7=
EXTT8=
EXTT9=
PLAYORDER=
